# xmcd
#
# Track frame offsets:
# 150
# 12565
# 22690
# 30664
# 43854
# 60391
# 71078
# 88290
# 104211
# 115912
# 126459
# 132871
# 152068
# 159790
# 175443
# 189127
# 200635
# 207371
# 222193
# 230616
# 239110
#
# Disc length: 3330 seconds
#
#
# Revision: 0
# Processed by: cddbd v1.5.2PL0 Copyright (c) Steve Scherf et al.
# Submitted via: FreeRIP 2.95 
#
DISCID=350d0015
DTITLE=FORRÓ RASTA CHINELA - 2007 Eletrico
DYEAR=2007
DGENRE=Forro
TTITLE0=Me diz
TTITLE1=Pisadinha
TTITLE2=Ela é fulêra
TTITLE3=Levada brasileira
TTITLE4=Cheio de manias
TTITLE5=Só pensando em você
TTITLE6=Eu preciso de que você me dê
TTITLE7=Frevo mulher
TTITLE8=Berimbau metalizado
TTITLE9=Ai, ai, fedeu
TTITLE10=Ovo de avestru
TTITLE11=Eu só quero pescar
TTITLE12=Minha estrela
TTITLE13=Gostaria de saber
TTITLE14=Mo na mour meu bem mafun
TTITLE15=Tá bombando
TTITLE16=Ai, ai, ui, ui...
TTITLE17=Pega fogo cabaré
TTITLE18=Ela é dog
TTITLE19=Glória a Deus
TTITLE20=Locutor (bônus)
EXTD=
EXTT0=
EXTT1=
EXTT2=
EXTT3=
EXTT4=
EXTT5=
EXTT6=
EXTT7=
EXTT8=
EXTT9=
EXTT10=
EXTT11=
EXTT12=
EXTT13=
EXTT14=
EXTT15=
EXTT16=
EXTT17=
EXTT18=
EXTT19=
EXTT20=
PLAYORDER=
